<?xml version="1.0" encoding="utf-8"?>
<!-- Generator: Adobe Illustrator 27.9.0, SVG Export Plug-In . SVG Version: 6.00 Build 0)  -->
<svg version="1.1" id="Layer_1" xmlns="http://www.w3.org/2000/svg" xmlns:xlink="http://www.w3.org/1999/xlink" x="0px" y="0px"
	 viewBox="0 0 800 800" style="enable-background:new 0 0 800 800;" xml:space="preserve">
<style type="text/css">
	.st0{fill:#F29A2E;}
	.st1{fill:#E1EAF2;}
	.st2{fill:#F4BC58;}
	.st3{fill:#D1DCE6;}
	.st4{fill:#3E4347;}
	.st5{fill:#E24B4B;}
</style>
<path class="st0" d="M703.8,255c18.8-31.2,70-26.3,70-26.3s-46.2-60-100-38.7c-32.5,11.2-62.5,52.5-35,85
	C656.2,296.2,681.2,291.2,703.8,255"/>
<path class="st1" d="M263.7,127.5C127.5,48.7,41.2,108.8,41.2,108.8s17.5,82.5,115,122.5c-98.8,0-131.2,115-131.2,115s40,35,97.5,35
	c-21.2,57.5,5,135,5,135s103.7-5,141.2-70l185-91.2C280,318.8,360,183.8,263.7,127.5"/>
<path class="st2" d="M352.5,775c0-15,52.5-6.2,68.8-117.5c5,100,110,102.5,110,117.5H352.5"/>
<g>
	<path class="st3" d="M181.2,382.5c0-145,117.5-30,262.5-28.8c55,0,262.5-67.5,262.5,28.8c0,143.7-117.5,291.2-262.5,291.2
		S181.2,526.2,181.2,382.5"/>
	<path class="st3" d="M343.7,615c0-13.8,155-8.8,155,20s-41.3,71.2-77.5,71.2S343.7,643.8,343.7,615"/>
</g>
<path class="st1" d="M717.5,328.7C717.5,170,625,110,553.7,136.2c-38.8,16.3-7.5,126.2-6.2,165s-61.2,25-61.2,25l51.2,33.8l-33.7,40
	l73.7-7.5l-11.2,65l61.2-43.8l8.8,66.2l40-47.5L710,475C710,475,717.5,366.2,717.5,328.7"/>
<g>
	<ellipse class="st4" cx="717.5" cy="201.2" rx="8.7" ry="3.7"/>
	<circle class="st4" cx="655" cy="208.8" r="18.8"/>
</g>
<g>
	<path class="st5" d="M701.2,295c0-72.5-20-107.5-20-107.5s62.5,40,78.8,100c12.5,46.2-23.8,18.8-32.5,18.8
		C727.5,306.2,701.2,335,701.2,295"/>
	<path class="st5" d="M538.7,132.5C501.2,125,480,100,466.2,110c-26.3,15,12.5,83.8,83.7,81.2c16.2,0,25-15,36.2-22.5
		c12.5-8.8,32.5-10,40-7.5c10,3.8,27.5,13.8,35,20c22.5,21.3,50-5,57.5-30c11.2-43.8-8.8-88.8-31.2-78.8c-15,7.5,6.2,41.2-15,57.5
		c-1.2,0-2.5,1.2-3.8,2.5c3.8-11.3,3.8-22.5,1.2-33.8c-11.2-53.8-60-86.2-76.2-67.5c-12.5,13.8,28.8,40,15,68.8c-2.5,5-3.8,10-5,15
		c-1.2-7.5-3.8-13.7-7.5-18.7c-28.8-46.2-87.5-60-95-38.8c-5,16.2,40,28.8,37.5,60V132.5"/>
</g>
<path class="st1" d="M267.5,548.7c0,0,47.5,56.2,153.7,42.5c96.2-12.5,121.2-125,36.2-172.5c-65-35-142.5-16.2-142.5-16.2
	s12.5,21.2,27.5,36.2c0,0-67.5,5-85,12.5c0,0,20,37.5,53.8,55C311.2,506.2,278.7,521.2,267.5,548.7"/>
</svg>
