<svg xmlns="http://www.w3.org/2000/svg" xmlns:xlink="http://www.w3.org/1999/xlink" viewBox="0 0 1024 1024" width="1024" height="1024" preserveAspectRatio="xMidYMid meet" style="width: 100%; height: 100%; transform: translate3d(0px, 0px, 0px); content-visibility: visible;" id="Fire"><defs><clipPath id="__lottie_element_748"><rect width="1024" height="1024" x="0" y="0"/></clipPath><clipPath id="__lottie_element_750"><path d="M0,0 L1024,0 L1024,1024 L0,1024z"/></clipPath><linearGradient id="__lottie_element_757" spreadMethod="pad" gradientUnits="userSpaceOnUse" x1="101.41999816894531" y1="-297.1499938964844" x2="89.01000213623047" y2="-224.1699981689453"><stop offset="0%" stop-color="rgb(244,66,54)"/><stop offset="71%" stop-color="rgb(249,97,38)"/><stop offset="100%" stop-color="rgb(255,128,22)"/></linearGradient><linearGradient id="__lottie_element_758" spreadMethod="pad" gradientUnits="userSpaceOnUse" x1="95.93199920654297" y1="-266.8179931640625" x2="88.33000183105469" y2="-222.5679931640625"><stop offset="0%" stop-color="rgb(246,75,49)"/><stop offset="50%" stop-color="rgb(250,108,37)"/><stop offset="100%" stop-color="rgb(255,140,26)"/></linearGradient><radialGradient id="__lottie_element_762" spreadMethod="pad" gradientUnits="userSpaceOnUse" cx="-16" cy="216" r="580.5411268807749" fx="12.10641782828186" fy="389.05586089139547"><stop offset="32%" stop-color="rgb(255,152,0)"/><stop offset="50%" stop-color="rgb(255,131,0)"/><stop offset="67%" stop-color="rgb(255,109,0)"/><stop offset="83%" stop-color="rgb(249,88,27)"/><stop offset="99%" stop-color="rgb(244,67,54)"/></radialGradient><g id="__lottie_element_763"><g clip-path="url(#__lottie_element_764)" transform="matrix(1,0,0,1,0,0)" opacity="1" style="display: block;"><g transform="matrix(1.7100000381469727,0,0,1.7100000381469727,528.3599853515625,575.6400146484375)" opacity="1" style="display: block;"><g opacity="1" transform="matrix(1,0,0,1,-11,60)"><path fill="url(#__lottie_element_776)" fill-opacity="1" d=" M0,-142.29299926757812 C78.53150939941406,-142.29299926757812 142.29299926757812,-78.53150939941406 142.29299926757812,0 C142.29299926757812,78.53150939941406 78.53150939941406,142.29299926757812 0,142.29299926757812 C-78.53150939941406,142.29299926757812 -142.29299926757812,78.53150939941406 -142.29299926757812,0 C-142.29299926757812,-78.53150939941406 -78.53150939941406,-142.29299926757812 0,-142.29299926757812z"/></g></g><g transform="matrix(1.7099007368087769,-0.018424948677420616,0.018424948677420616,1.7099007368087769,524.3801879882812,575.6614379882812)" opacity="1" style="display: block;"><g opacity="1" transform="matrix(1,0,0,1,0,0)"><path fill="url(#__lottie_element_780)" fill-opacity="1" d=" M-183.75682067871094,-68.93021392822266 C-193.62152099609375,-53.754539489746094 -207.2132110595703,-26.393098831176758 -219.90550231933594,0.3388431966304779 C-233.79722595214844,28.353023529052734 -237.49021911621094,61.49043655395508 -232.1436004638672,99.66140747070312 C-223.86647033691406,161.17689514160156 -150.4100799560547,241.1697235107422 1,242 C72.99983215332031,241 -28,116 -50,69 C-72,22 -91.98004913330078,-1.553202748298645 -91.98004913330078,-1.553202748298645 C-91.98004913330078,-1.553202748298645 -107.22382354736328,-27.930538177490234 -136.28265380859375,-68.5623550415039 C-143.17454528808594,-78.60331726074219 -165.1588134765625,-99.21746063232422 -183.75682067871094,-68.93021392822266z"/></g></g><g transform="matrix(1.7058473825454712,-0.11910053342580795,0.11910053342580795,1.7058473825454712,502.63427734375,576.5369873046875)" opacity="1" style="display: block;"><g opacity="1" transform="matrix(1,0,0,1,0,0)"><path fill="url(#__lottie_element_784)" fill-opacity="1" d=" M71.74436950683594,-30.149391174316406 C71.74436950683594,-30.149391174316406 -62,233.5 0.5,242 C63,250.5 191.01121520996094,232.6673126220703 204.62522888183594,127.02154541015625 C209.68873596191406,93.2227783203125 201.2860870361328,63.334510803222656 177.84292602539062,33.08097839355469 C163.61141967773438,14.944286346435547 142.3682403564453,-18.898849487304688 140.37425231933594,-23.773971557617188 C138.15264892578125,-29.91571617126465 129.60934448242188,-42.08147048950195 121.70008087158203,-25.5982666015625 C115.97142791748047,-14.87904167175293 125.86365509033203,-20.871217727661133 96.74352264404297,3.137831449508667 C78.4415512084961,17.148508071899414 71.74436950683594,-30.149391174316406 71.74436950683594,-30.149391174316406z"/></g></g><g transform="matrix(1.7122132778167725,0,0,1.7038025856018066,528.3865356445312,575.5780029296875)" opacity="1" style="display: block;"><g opacity="1" transform="matrix(1,0,0,1,0,0)"><path fill="url(#__lottie_element_788)" fill-opacity="1" d=" M1.6290364265441895,-288.5229797363281 C-5.086742877960205,-310.4216613769531 0.9312016367912292,-329.75421142578125 -2.27127742767334,-328.9637145996094 C-17.197986602783203,-326.1603088378906 -14.624420166015625,-294.5705871582031 -48.97190856933594,-186.81491088867188 C-76.12322998046875,-104.62882995605469 -152.77513122558594,-125.00476837158203 -125.5260009765625,-54.31968688964844 C-125.0472412109375,-27.082321166992188 -122.5,-12.5 -122.5,-12.5 C-122.5,-12.5 90.99761962890625,10.686141014099121 90.99761962890625,10.686141014099121 C90.99761962890625,10.686141014099121 94.03645324707031,17.459516525268555 97.23145294189453,12.187517166137695 C100.17145538330078,7.337517261505127 105.79241943359375,16.18999671936035 109.76241302490234,6.390995979309082 C120.41541290283203,-19.904003143310547 169.90548706054688,-103.85993957519531 89.80226135253906,-171.70462036132812 C33.19664001464844,-223.1949005126953 10.17163372039795,-261.6082763671875 1.6290364265441895,-288.5229797363281z"/></g></g></g></g><clipPath id="__lottie_element_764"><path d="M0,0 L1024,0 L1024,1024 L0,1024z"/></clipPath><radialGradient id="__lottie_element_770" spreadMethod="pad" gradientUnits="userSpaceOnUse" cx="0" cy="-110.38700103759766" r="368.03265578321333" fx="-2.677403414659563" fy="-62.790977199707456"><stop offset="21%" stop-color="rgb(255,241,118)"/><stop offset="35%" stop-color="rgb(255,243,131)"/><stop offset="48%" stop-color="rgb(255,244,143)"/><stop offset="57%" stop-color="rgb(255,247,170)"/><stop offset="79%" stop-color="rgb(255,249,196)"/><stop offset="87%" stop-color="rgb(255,245,157)"/><stop offset="94%" stop-color="rgb(255,241,118)"/></radialGradient><mask id="__lottie_element_772"><path fill="url(#__lottie_element_771)" d=" M38.35308837890625,-58.85572052001953 C14.595918655395508,-22.244369506835938 1.4034684896469116,-19.61216163635254 -16.222919464111328,5.662477493286133 C-31.13763999938965,31.248369216918945 -13.578594207763672,63.298152923583984 -27.60291862487793,65.4732666015625 C-42.28300857543945,68.66651916503906 -34.90110778808594,44.77953338623047 -34.84515380859375,22.595739364624023 C-34.138919830322266,10.041513442993164 -31.469810485839844,-17.114856719970703 -36.76359558105469,-16.72503662109375 C-46.878990173339844,-6.189297199249268 -55.526100158691406,18.031404495239258 -79.39013671875,45.82784652709961 C-92.03849029541016,61.18600082397461 -115.91905975341797,74.45109558105469 -121.58748626708984,118.5831298828125 C-127.47380828857422,180.09942626953125 -82.93790435791016,230 -1.5214414596557617,233 C79.89501953125,236 102.67861938476562,167.8036651611328 105.38570404052734,157.71888732910156 C110.47771453857422,134.12937927246094 119.3891372680664,106.59537506103516 87.1316146850586,58.61823272705078 C54.97451400756836,13.455937385559082 65.40734100341797,-23.216594696044922 63.51349639892578,-46.55129623413086 C61.21395492553711,-70.5702133178711 41.09572219848633,-68.32134246826172 38.35308837890625,-58.85572052001953z"/></mask><radialGradient id="__lottie_element_771" spreadMethod="pad" gradientUnits="userSpaceOnUse" cx="0" cy="-110.38700103759766" r="368.03265578321333" fx="-2.677403414659563" fy="-62.790977199707456"><stop stop-color="rgb(255,255,255)" offset="79%" stop-opacity="1"/><stop stop-color="rgb(255,255,255)" offset="86%" stop-opacity="0.5"/><stop stop-color="rgb(255,255,255)" offset="94%" stop-opacity="0"/></radialGradient><mask id="__lottie_element_763_1" mask-type="alpha"><use xmlns:ns1="http://www.w3.org/1999/xlink" ns1:href="#__lottie_element_763"/></mask><linearGradient id="__lottie_element_776" spreadMethod="pad" gradientUnits="userSpaceOnUse" x1="0" y1="0" x2="3.0160000324249268" y2="-41.5629997253418"><stop offset="0%" stop-color="rgb(255,141,26)"/><stop offset="79%" stop-color="rgb(255,134,24)"/><stop offset="100%" stop-color="rgb(255,128,22)"/></linearGradient><linearGradient id="__lottie_element_780" spreadMethod="pad" gradientUnits="userSpaceOnUse" x1="-244.42999267578125" y1="-95.93800354003906" x2="-110.78500366210938" y2="-38.10499954223633"><stop offset="0%" stop-color="rgb(249,95,45)"/><stop offset="79%" stop-color="rgb(252,118,35)"/><stop offset="100%" stop-color="rgb(255,141,26)"/></linearGradient><linearGradient id="__lottie_element_784" spreadMethod="pad" gradientUnits="userSpaceOnUse" x1="218.1479949951172" y1="-76.56600189208984" x2="86.46900177001953" y2="21.483999252319336"><stop offset="0%" stop-color="rgb(251,96,33)"/><stop offset="79%" stop-color="rgb(253,119,30)"/><stop offset="100%" stop-color="rgb(255,141,26)"/></linearGradient><linearGradient id="__lottie_element_788" spreadMethod="pad" gradientUnits="userSpaceOnUse" x1="1.4769999980926514" y1="-290.531005859375" x2="-11.47700023651123" y2="-55.89799880981445"><stop offset="0%" stop-color="rgb(244,66,54)"/><stop offset="79%" stop-color="rgb(249,97,38)"/><stop offset="100%" stop-color="rgb(255,128,22)"/></linearGradient><linearGradient id="__lottie_element_792" spreadMethod="pad" gradientUnits="userSpaceOnUse" x1="101.41999816894531" y1="-297.1499938964844" x2="89.01000213623047" y2="-224.1699981689453"><stop offset="0%" stop-color="rgb(244,66,54)"/><stop offset="71%" stop-color="rgb(249,97,38)"/><stop offset="100%" stop-color="rgb(255,128,22)"/></linearGradient><linearGradient id="__lottie_element_793" spreadMethod="pad" gradientUnits="userSpaceOnUse" x1="95.93199920654297" y1="-266.8179931640625" x2="88.33000183105469" y2="-222.5679931640625"><stop offset="0%" stop-color="rgb(246,75,49)"/><stop offset="50%" stop-color="rgb(250,108,37)"/><stop offset="100%" stop-color="rgb(255,140,26)"/></linearGradient></defs><g clip-path="url(#__lottie_element_748)"><g clip-path="url(#__lottie_element_750)" transform="matrix(1,0,0,1,2,0)" opacity="1" style="display: block;"><g transform="matrix(1.504157304763794,-0.16866673529148102,0.16866673529148102,1.504157304763794,613.6040649414062,314.8104248046875)" opacity="1" style="display: block;"><g opacity="1" transform="matrix(1,0,0,1,0,0)"><path fill="url(#__lottie_element_792)" fill-opacity="1" d=" M93.5,-264 C88.48524475097656,-253.5973358154297 86.25162506103516,-255.19041442871094 85.0077133178711,-247.73414611816406 C83.73851013183594,-239.62950134277344 89.56315612792969,-221.2213592529297 89.56315612792969,-221.2213592529297 C89.56315612792969,-221.2213592529297 97.70050811767578,-235.6876220703125 99.10002136230469,-242.6528778076172 C99.33009338378906,-251.8850860595703 98.80733489990234,-274.6551208496094 93.5,-264z"/><path stroke="url(#__lottie_element_793)" stroke-linecap="round" stroke-linejoin="round" fill-opacity="0" stroke-opacity="1" stroke-width="8" d=" M93.5,-264 C88.48524475097656,-253.5973358154297 86.25162506103516,-255.19041442871094 85.0077133178711,-247.73414611816406 C83.73851013183594,-239.62950134277344 89.56315612792969,-221.2213592529297 89.56315612792969,-221.2213592529297 C89.56315612792969,-221.2213592529297 97.70050811767578,-235.6876220703125 99.10002136230469,-242.6528778076172 C99.33009338378906,-251.8850860595703 98.80733489990234,-274.6551208496094 93.5,-264z"/></g></g><g transform="matrix(1.3785109519958496,-0.04216839000582695,0.04216839000582695,1.3785109519958496,317.79437255859375,358.2431945800781)" opacity="1" style="display: none;"><g opacity="1" transform="matrix(1,0,0,1,0,0)"><path fill="url(#__lottie_element_757)" fill-opacity="1" d=" M93.5,-264 C87.80443572998047,-254.0709686279297 85.96971130371094,-255.12049865722656 84.89654541015625,-247.7870330810547 C83.79237365722656,-239.65875244140625 89.54444122314453,-222.26454162597656 89.54444122314453,-222.26454162597656 C89.54444122314453,-222.26454162597656 98.42326354980469,-235.84291076660156 98.89678192138672,-242.91322326660156 C97.93675994873047,-252.76243591308594 99.55421447753906,-274.238525390625 93.5,-264z"/><path stroke="url(#__lottie_element_758)" stroke-linecap="round" stroke-linejoin="round" fill-opacity="0" stroke-opacity="1" stroke-width="8" d=" M93.5,-264 C87.80443572998047,-254.0709686279297 85.96971130371094,-255.12049865722656 84.89654541015625,-247.7870330810547 C83.79237365722656,-239.65875244140625 89.54444122314453,-222.26454162597656 89.54444122314453,-222.26454162597656 C89.54444122314453,-222.26454162597656 98.42326354980469,-235.84291076660156 98.89678192138672,-242.91322326660156 C97.93675994873047,-252.76243591308594 99.55421447753906,-274.238525390625 93.5,-264z"/></g></g><g mask="url(#__lottie_element_763_1)" style="display: block;"><g transform="matrix(1,0,0,1,512,512)" opacity="1"><g opacity="1" transform="matrix(1,0,0,1,0,0)"><path fill="url(#__lottie_element_762)" fill-opacity="1" d=" M512,-512 C512,-512 512,512 512,512 C512,512 -512,512 -512,512 C-512,512 -512,-512 -512,-512 C-512,-512 512,-512 512,-512z"/></g></g></g><g transform="matrix(1.704954743385315,-0.13126206398010254,0.13126206398010254,1.704954743385315,498.927001953125,575.9825439453125)" opacity="1" style="display: block;"><g opacity="1" transform="matrix(1,0,0,1,0,0)"><path fill="url(#__lottie_element_770)" mask="url(#__lottie_element_772)" fill-opacity="1" d="M0 0 M38.35308837890625,-58.85572052001953 C14.595918655395508,-22.244369506835938 1.4034684896469116,-19.61216163635254 -16.222919464111328,5.662477493286133 C-31.13763999938965,31.248369216918945 -13.578594207763672,63.298152923583984 -27.60291862487793,65.4732666015625 C-42.28300857543945,68.66651916503906 -34.90110778808594,44.77953338623047 -34.84515380859375,22.595739364624023 C-34.138919830322266,10.041513442993164 -31.469810485839844,-17.114856719970703 -36.76359558105469,-16.72503662109375 C-46.878990173339844,-6.189297199249268 -55.526100158691406,18.031404495239258 -79.39013671875,45.82784652709961 C-92.03849029541016,61.18600082397461 -115.91905975341797,74.45109558105469 -121.58748626708984,118.5831298828125 C-127.47380828857422,180.09942626953125 -82.93790435791016,230 -1.5214414596557617,233 C79.89501953125,236 102.67861938476562,167.8036651611328 105.38570404052734,157.71888732910156 C110.47771453857422,134.12937927246094 119.3891372680664,106.59537506103516 87.1316146850586,58.61823272705078 C54.97451400756836,13.455937385559082 65.40734100341797,-23.216594696044922 63.51349639892578,-46.55129623413086 C61.21395492553711,-70.5702133178711 41.09572219848633,-68.32134246826172 38.35308837890625,-58.85572052001953z"/></g></g></g></g></svg>